<svg xmlns:dc="http://purl.org/dc/elements/1.1/" xmlns:cc="http://creativecommons.org/ns#" xmlns:rdf="http://www.w3.org/1999/02/22-rdf-syntax-ns#" xmlns:svg="http://www.w3.org/2000/svg" xmlns="http://www.w3.org/2000/svg" xmlns:sodipodi="http://sodipodi.sourceforge.net/DTD/sodipodi-0.dtd" xmlns:inkscape="http://www.inkscape.org/namespaces/inkscape" version="1.1" x="0px" y="0px" viewBox="0 0 97.8 122.25" enable-background="new 0 0 97.8 97.8" xml:space="preserve"><path  fill="#FF6D33" d="m 9.8014898,72.436986 0,-10.289751 c 10.8048652,0 16.1956872,-5.333585 21.4149942,-10.509618 1.270788,-1.262344 2.561566,-2.564045 3.913624,-3.73773 C 33.77805,46.725147 32.487272,45.467418 31.216484,44.206131 25.997177,39.029041 20.606355,33.696513 9.8014898,33.696513 l 0,-10.289751 c 15.0425832,0 22.9224902,7.797089 28.6705892,13.499802 3.410229,3.382787 5.577323,5.44948 7.915193,5.848448 0.259645,-0.01266 0.524485,-0.04292 0.791519,-0.04397 0.0073,0 0.03553,0 0.04397,0 l 24.756965,0 -4.221437,-10.685511 c -0.140377,-0.358862 -0.0014,-0.780238 0.307813,-1.011386 0.151989,-0.116104 0.302165,-0.175893 0.483707,-0.175893 0.183651,0 0.37358,0.05768 0.527679,0.175893 l 21.019238,16.18217 c 0.211094,0.162542 0.351787,0.393619 0.351787,0.659599 0,0.265979 -0.140687,0.497057 -0.351787,0.659599 L 69.077491,64.697686 c -0.306085,0.235369 -0.704244,0.232203 -1.011386,0 C 67.756857,64.466537 67.616859,64.04516 67.758293,63.6863 l 4.221436,-10.68551 -24.712992,0 0,0.131919 c -0.287089,0 -0.60082,-0.0292 -0.879466,-0.04397 -2.33787,0.400023 -4.506019,2.466718 -7.915193,5.848448 -5.748099,5.703772 -13.628005,13.499802 -28.6705883,13.499802 z"/></svg>