<svg xmlns:dc="http://purl.org/dc/elements/1.1/" xmlns:cc="http://creativecommons.org/ns#" xmlns:rdf="http://www.w3.org/1999/02/22-rdf-syntax-ns#" xmlns:svg="http://www.w3.org/2000/svg" xmlns="http://www.w3.org/2000/svg" xmlns:sodipodi="http://sodipodi.sourceforge.net/DTD/sodipodi-0.dtd" xmlns:inkscape="http://www.inkscape.org/namespaces/inkscape" version="1.1" x="0px" y="0px" viewBox="0 0 100 125"><g transform="translate(0,-952.36218)"><path style="text-indent:0;text-transform:none;direction:ltr;block-progression:tb;baseline-shift:baseline;color:#000000;enable-background:accumulate;" d="M 28 7 C 25.594118 7 23.562087 8.7272518 23.09375 11 L 21 11 C 18.801297 11 17 12.8013 17 15 L 17 34 C 17 45.284794 25.844846 54.484801 37 55 L 37 74 C 37 84.4982 45.491899 93 56 93 C 66.508101 93 75 84.4982 75 74 L 75 70.9375 C 79.483882 70.431209 83 66.615857 83 62 C 83 57.0413 78.958718 53 74 53 C 69.041282 53 65 57.0413 65 62 C 65 66.615857 68.516118 70.431209 73 70.9375 L 73 74 C 73 83.4236 65.435899 91 56 91 C 46.564101 91 39 83.4236 39 74 L 39 55 C 50.155154 54.484801 59 45.284794 59 34 L 59 15 C 59 12.8013 57.198703 11 55 11 L 52.90625 11 C 52.437913 8.7272518 50.405882 7 48 7 C 45.250421 7 43 9.25042 43 12 C 43 14.74958 45.250421 17 48 17 C 50.405882 17 52.437913 15.272748 52.90625 13 L 55 13 C 56.125297 13 57 13.8747 57 15 L 57 34 C 57 44.5433 48.543293 53 38 53 C 27.456707 53 19 44.5433 19 34 L 19 15 C 19 13.8747 19.874703 13 21 13 L 23.09375 13 C 23.562087 15.272748 25.594118 17 28 17 C 30.749579 17 33 14.74958 33 12 C 33 9.25042 30.749579 7 28 7 z M 28 9 C 29.668699 9 31 10.3313 31 12 C 31 13.6687 29.668699 15 28 15 C 26.331301 15 25 13.6687 25 12 C 25 10.3313 26.331301 9 28 9 z M 48 9 C 49.668699 9 51 10.3313 51 12 C 51 13.6687 49.668699 15 48 15 C 46.331301 15 45 13.6687 45 12 C 45 10.3313 46.331301 9 48 9 z M 74 55 C 77.877838 55 81 58.1221 81 62 C 81 65.8778 77.877838 69 74 69 C 70.122162 69 67 65.8778 67 62 C 67 58.1221 70.122162 55 74 55 z " transform="translate(0,952.36218)" fill="#FF6D33" fill-opacity="1" stroke="none" marker="none" visibility="visible" display="inline" overflow="visible"/></g></svg>